<svg width="1376" height="1328" xmlns="http://www.w3.org/2000/svg" xmlns:xlink="http://www.w3.org/1999/xlink" xml:space="preserve" overflow="hidden"><g transform="translate(-1178 -574)"><path d="M1180.5 747.629C1180.5 653.117 1257.12 576.5 1351.63 576.5L2380.37 576.5C2474.88 576.5 2551.5 653.117 2551.5 747.629L2551.5 1728.37C2551.5 1822.88 2474.88 1899.5 2380.37 1899.5L1351.63 1899.5C1257.12 1899.5 1180.5 1822.88 1180.5 1728.37Z" stroke="#000000" stroke-width="4.58333" stroke-miterlimit="8" fill-rule="evenodd"/><path d="M1770.93 1063 1802.42 1063 1863.2 1237.43 1923.98 1063 1956 1063 1956 1264.52 1898.39 1413.47 1898.39 1414.17 1898.11 1414.17 1897.59 1414.17 1897.31 1414.17 1829.1 1414.17 1828.82 1414.17 1828.3 1414.17 1828.02 1414.17 1828.02 1413.47 1770.93 1265.87ZM1973.66 1060.83 2021.2 1060.83C2047.45 1060.83 2068.73 1081.05 2068.73 1105.99L2068.73 1412 2021.2 1412C1994.94 1412 1973.66 1391.79 1973.66 1366.85ZM1705.73 1060.83 1753.26 1060.83 1753.26 1366.85C1753.26 1391.79 1731.98 1412 1705.73 1412L1658.2 1412 1658.2 1105.99C1658.2 1081.05 1679.48 1060.83 1705.73 1060.83ZM2124.03 1059 2194.76 1059 2194.76 1059 2198.98 1059 2222.49 1059 2222.49 1059 2237.44 1059C2237.44 1059.1 2237.44 1059.19 2237.44 1059.29L2251.11 1060.7C2257.54 1062.6 2272.34 1068.86 2276.04 1070.65L2277.01 1071.14C2300.6 1085.85 2316.36 1112.47 2316.36 1142.87 2316.36 1151.55 2315.07 1159.93 2312.69 1167.81L2311.02 1171.36 2311.02 1171.36 2302.4 1189.76 2300.24 1192.45 2308.81 1194.49C2352.43 1209.05 2381.61 1248.45 2380.99 1295.05 2380.36 1342.81 2348.42 1387.16 2301.25 1405.79 2293.19 1408.97 2285 1411.28 2276.81 1412.75L2262.05 1413.92C2262.05 1413.92 2262.05 1413.92 2262.05 1413.92L2252.34 1414.69C2236.19 1414.35 2220.53 1410.8 2206.37 1404.31L2196.58 1398.76C2196.58 1404.51 2196.58 1410.25 2196.58 1416L2177.45 1416 2177.45 1416 2125.46 1416 2124.03 1416 2097.12 1415.93C2097.12 1334.19 2097.12 1251.91 2097.12 1170.17L2097.31 1170.17 2097.16 1093.25 2096.85 1091.94 2095.59 1086.61C2092.52 1077.08 2087.4 1068.97 2080.94 1063.25L2074.21 1059 2082.94 1059 2124.03 1059ZM1536.24 1059 1606.97 1059 1606.97 1059 1648.06 1059 1656.79 1059 1650.06 1063.25C1643.6 1068.97 1638.48 1077.08 1635.41 1086.61L1634.15 1091.94 1633.84 1093.25 1633.69 1170.17 1633.88 1170.17C1633.88 1251.91 1633.88 1334.19 1633.88 1415.93L1606.97 1416 1605.54 1416 1553.55 1416 1553.55 1416 1534.42 1416C1534.42 1410.25 1534.42 1404.51 1534.42 1398.76L1524.63 1404.31C1510.47 1410.8 1494.81 1414.35 1478.66 1414.69L1468.95 1413.92C1468.95 1413.92 1468.95 1413.92 1468.95 1413.92L1454.19 1412.75C1446 1411.28 1437.81 1408.97 1429.76 1405.79 1382.58 1387.16 1350.64 1342.81 1350.01 1295.05 1349.39 1248.45 1378.57 1209.05 1422.19 1194.49L1430.76 1192.45 1428.6 1189.76 1419.98 1171.36 1419.98 1171.36 1418.31 1167.81C1415.93 1159.93 1414.64 1151.55 1414.64 1142.87 1414.64 1112.47 1430.4 1085.85 1453.99 1071.14L1454.96 1070.65C1458.66 1068.86 1473.46 1062.6 1479.89 1060.7L1493.56 1059.29C1493.56 1059.19 1493.56 1059.1 1493.56 1059L1508.51 1059 1508.51 1059 1532.02 1059 1536.24 1059Z" fill="#FFFFFF" fill-rule="evenodd"/></g></svg>